<?xml version="1.0" encoding="UTF-8" standalone="no"?>
<svg
   xmlns:dc="http://purl.org/dc/elements/1.1/"
   xmlns:cc="http://creativecommons.org/ns#"
   xmlns:rdf="http://www.w3.org/1999/02/22-rdf-syntax-ns#"
   xmlns:svg="http://www.w3.org/2000/svg"
   xmlns="http://www.w3.org/2000/svg"
   xmlns:sodipodi="http://sodipodi.sourceforge.net/DTD/sodipodi-0.dtd"
   xmlns:inkscape="http://www.inkscape.org/namespaces/inkscape"
   version="1.1"
   viewBox="0 0 310 310"
   stroke-miterlimit="10"
   id="svg23"
   sodipodi:docname="icon.svg"
   width="310"
   height="310"
   style="fill:none;stroke:none;stroke-linecap:square;stroke-miterlimit:10"
   inkscape:version="0.92.2 (5c3e80d, 2017-08-06)">
  <metadata
     id="metadata29">
    <rdf:RDF>
      <cc:Work
         rdf:about="">
        <dc:format>image/svg+xml</dc:format>
        <dc:type
           rdf:resource="http://purl.org/dc/dcmitype/StillImage" />
        <dc:title></dc:title>
      </cc:Work>
    </rdf:RDF>
  </metadata>
  <defs
     id="defs27" />
  <sodipodi:namedview
     pagecolor="#ffffff"
     bordercolor="#666666"
     borderopacity="1"
     objecttolerance="10"
     gridtolerance="10"
     guidetolerance="10"
     inkscape:pageopacity="0"
     inkscape:pageshadow="2"
     inkscape:window-width="1600"
     inkscape:window-height="851"
     id="namedview25"
     showgrid="false"
     showguides="true"
     inkscape:guide-bbox="true"
     inkscape:showpageshadow="false"
     inkscape:lockguides="false"
     inkscape:zoom="1.6133333"
     inkscape:cx="220.66115"
     inkscape:cy="152.10744"
     inkscape:window-x="0"
     inkscape:window-y="25"
     inkscape:window-maximized="1"
     inkscape:current-layer="layer2">
    <sodipodi:guide
       position="737.6618,244.14787"
       orientation="1,0"
       id="guide4551"
       inkscape:locked="false" />
    <sodipodi:guide
       position="702.48664,252.46728"
       orientation="1,0"
       id="guide4627"
       inkscape:locked="false" />
    <sodipodi:guide
       position="0,225"
       orientation="1,0"
       id="guide840"
       inkscape:locked="false" />
    <sodipodi:guide
       position="83.057853,309.91736"
       orientation="0,1"
       id="guide842"
       inkscape:locked="false" />
    <sodipodi:guide
       position="309.91736,97.314052"
       orientation="1,0"
       id="guide844"
       inkscape:locked="false" />
    <sodipodi:guide
       position="232.43802,0"
       orientation="0,1"
       id="guide846"
       inkscape:locked="false" />
  </sodipodi:namedview>
  <clipPath
     id="p.0">
    <path
       d="M 0,0 H 960 V 720 H 0 Z"
       id="path2"
       inkscape:connector-curvature="0"
       style="clip-rule:nonzero" />
  </clipPath>
  <g
     clip-path="url(#p.0)"
     id="g21"
     transform="translate(0,-410)">
    <path
       d="M 0,0 H 960 V 720 H 0 Z"
       id="path5"
       inkscape:connector-curvature="0"
       style="fill:#000000;fill-opacity:0;fill-rule:evenodd" />
    <g
       id="g4543"
       transform="translate(224.31813,683.97056)">
      <path
         id="path7"
         d="M 8.56168,67.632545 H 729.41202 V 291.94751 H 8.56168 Z"
         inkscape:connector-curvature="0"
         style="fill:#000000;fill-opacity:0;fill-rule:evenodd" />
      <path
         style="fill:#0080c0;fill-opacity:1;fill-rule:nonzero"
         id="path9"
         d="m 17.56168,76.632545 h 470.6698 V 281.43254 H 17.56168 Z"
         inkscape:connector-curvature="0" />
      <path
         style="fill:#404040;fill-opacity:1;fill-rule:nonzero"
         id="path11"
         d="M 488.23148,76.632545 H 718.78803 V 281.43254 H 488.23148 Z"
         inkscape:connector-curvature="0" />
      <path
         id="path13"
         d="m 117.36369,111.19129 q 28.5625,0 48.71875,19.51563 l -19.92187,23.42188 q -13.67188,-10.9375 -25.90625,-10.9375 -5.21875,0 -7.23438,1.39062 -2.01562,1.375 -2.01562,3.60938 0,1.6875 1.0625,2.84375 1.0625,1.15625 4.8125,2.70312 3.75,1.53125 13,4.54688 19.67187,6.26562 28.71875,16.17187 9.0625,9.89063 9.0625,26.96875 0,12.54688 -6.65625,22.20313 -6.65625,9.65625 -18.71875,14.95312 -12.0625,5.29688 -28.17188,5.29688 -16.40625,0 -29,-5.20313 Q 72.535565,233.45692 61.410569,222.5663 L 83.26994,198.53505 q 15.09375,13 29.48438,13 6.09375,0 8.6875,-2.0625 2.60937,-2.07813 2.60937,-5.14063 0,-2.48437 -1.0625,-4.03125 -1.04687,-1.5625 -4.59375,-3.32812 -3.54687,-1.78125 -11.125,-4.09375 -21.59375,-6.78125 -30.5625,-16.78125 -8.96875,-10 -8.96875,-25.01563 0,-12.25 6.59375,-21.29687 6.609375,-9.06251 17.890625,-13.82814 11.281255,-4.76562 25.140625,-4.76562 z"
         inkscape:connector-curvature="0"
         style="fill:#ffffff;fill-rule:nonzero" />
      <path
         id="path15"
         d="m 200.6783,149.84755 v 90.625 h -26.96875 v -90.625 z m -13.65625,-47.78126 q 6.98437,0 11.5,4.35938 4.53125,4.34375 4.53125,11 0,6.65625 -4.53125,11.01563 -4.51563,4.34375 -11.5,4.34375 -7,0 -11.4375,-4.34375 -4.4375,-4.35938 -4.4375,-11.01563 0,-6.65625 4.4375,-11 4.4375,-4.35938 11.4375,-4.35938 z m 58.87505,141.3125 q -11.76563,0 -18.34375,-6.73437 -6.5625,-6.75 -6.5625,-19.20313 V 113.84753 l 26.95312,-2.90625 v 105.46876 q 0,5.625 4.60938,5.625 2.39062,0 4.4375,-0.84375 l 5.29687,19.10938 q -7.34375,3.07812 -16.39062,3.07812 z m 104.6224,-93.53125 -28.5,90.625 h -31.92187 l -29.1875,-90.625 h 29.35937 l 16.04688,70.14063 16.71875,-70.14063 z m 81.56226,64.34375 q 0,5.125 1.45312,7.51563 1.45313,2.375 4.6875,3.57812 l -5.625,17.57813 q -8.35937,-0.6875 -13.65625,-3.67188 -5.28125,-2.98437 -8.1875,-9.46875 -8.875,13.65625 -27.3125,13.65625 -13.46875,0 -21.5,-7.84375 -8.01562,-7.85937 -8.01562,-20.48437 0,-14.85938 10.92187,-22.70313 10.92188,-7.84375 31.57813,-7.84375 h 9.20312 v -3.9375 q 0,-8.01562 -3.42187,-11 -3.40625,-2.98437 -11.9375,-2.98437 -4.4375,0 -10.75,1.28125 -6.3125,1.28125 -12.96875,3.5 l -6.14063,-17.75 q 8.53125,-3.25 17.48438,-4.95313 8.96875,-1.70312 16.64062,-1.70312 19.46875,0 28.5,8.01562 9.04688,8.01563 9.04688,24.0625 z m -40.78125,9.89063 q 9.21875,0 14.32812,-8.70313 v -16.03125 h -6.65625 q -9.20312,0 -13.73437,3.25 -4.51563,3.23438 -4.51563,10.0625 0,5.45313 2.8125,8.4375 2.8125,2.98438 7.76563,2.98438 z"
         inkscape:connector-curvature="0"
         style="fill:#ffffff;fill-rule:nonzero" />
      <path
         id="path17"
         d="m 583.04913,114.59754 v 125.87501 h -42.25 V 114.59754 Z m 103.23785,0 -4.54687,33.37501 h -26.51563 v 92.5 h -42.25 v -92.5 h -28.82812 v -33.37501 z"
         inkscape:connector-curvature="0"
         style="fill:#ffffff;fill-rule:nonzero" />
      <path
         id="path19"
         d="m 698.143,218.80067 q 5.10938,0 8.51563,3.42187 3.42187,3.40625 3.42187,8.35938 0,4.9375 -3.42187,8.4375 -3.40625,3.5 -8.51563,3.5 -4.95312,0 -8.375,-3.5 -3.40625,-3.5 -3.40625,-8.4375 0,-4.95313 3.40625,-8.35938 3.42188,-3.42187 8.375,-3.42187 z"
         inkscape:connector-curvature="0"
         style="fill:#3f4043;fill-rule:nonzero" />
    </g>
    <g
       aria-label=".Silva..IT."
       transform="translate(8.6227545,-49.580838)"
       style="font-style:normal;font-variant:normal;font-weight:normal;font-stretch:normal;font-size:40px;line-height:1.25;font-family:'Fira Sans';-inkscape-font-specification:'Fira Sans weight=280';letter-spacing:0px;word-spacing:0px;fill:#000000;fill-opacity:1;stroke:none"
       id="flowRoot4526" />
  </g>
  <g
     inkscape:groupmode="layer"
     id="layer1"
     inkscape:label="Silva"
     transform="translate(0,-410)"
     style="display:inline">
    <rect
       style="font-style:normal;font-variant:normal;font-weight:normal;font-stretch:normal;font-size:40px;line-height:1.25;font-family:'Fira Sans';-inkscape-font-specification:'Fira Sans weight=280';letter-spacing:0px;word-spacing:0px;fill:#0080c0;fill-opacity:1;stroke:none;stroke-width:6.25627136;stroke-linecap:square;stroke-miterlimit:10"
       id="rect4629"
       width="155"
       height="309.91739"
       x="0"
       y="410.08264" />
    <path
       d="m 80.166665,486.53467 q 33.919995,0 54.826675,20.26666 L 115.58,529.62799 q -14.93334,-11.94666 -31.78666,-11.94666 -7.893338,0 -11.946675,2.77334 -4.053325,2.77332 -4.053325,7.89332 0,3.84 2.133325,6.4 2.346675,2.34668 7.466675,4.48 5.333325,2.13334 17.06666,5.97334 23.46666,7.46667 33.70666,18.77334 10.45334,11.30666 10.45334,30.93333 0,14.29333 -7.68,25.38667 -7.46666,10.88 -21.54666,17.06666 -14.080002,6.18667 -33.28,6.18667 -19.626675,0 -34.56,-6.18667 Q 26.62,631.17467 16.38,621.148 l 21.546665,-23.68 q 16.853337,14.50667 36.48,14.50667 9.173337,0 13.866675,-3.62667 4.693325,-3.84 4.693325,-9.81333 0,-4.48 -2.133325,-7.46667 -1.92,-2.98667 -7.04,-5.54667 -5.12,-2.56 -14.933338,-5.54666 -25.813337,-8.10667 -36.053337,-19.41334 -10.239998,-11.52 -10.239998,-28.58666 0,-13.86668 7.466673,-24.10668 7.466662,-10.24 20.48,-15.78666 13.226662,-5.54666 29.653325,-5.54666 z"
       style="font-style:normal;font-variant:normal;font-weight:900;font-stretch:normal;font-size:170.66667175px;line-height:1.25;font-family:'Fira Sans';-inkscape-font-specification:'Fira Sans Heavy';letter-spacing:0px;word-spacing:0px;display:inline;fill:#ffffff;fill-opacity:1;stroke:none;stroke-width:1.25;stroke-linecap:square;stroke-miterlimit:10"
       id="path4555"
       inkscape:connector-curvature="0" />
  </g>
  <g
     inkscape:groupmode="layer"
     id="layer2"
     inkscape:label="IT"
     transform="translate(0,-410)"
     style="display:inline">
    <rect
       style="font-style:normal;font-variant:normal;font-weight:normal;font-stretch:normal;font-size:40px;line-height:1.25;font-family:'Fira Sans';-inkscape-font-specification:'Fira Sans weight=280';letter-spacing:0px;word-spacing:0px;fill:#404040;fill-opacity:1;stroke:none;stroke-width:6.25710487;stroke-linecap:square;stroke-miterlimit:10"
       id="rect4629-3-6"
       width="155"
       height="310"
       x="155"
       y="410.00003" />
    <path
       d="m 254.47333,490.76003 v 148.48 h -43.94667 v -148.48 z"
       style="font-style:normal;font-variant:normal;font-weight:900;font-stretch:normal;font-size:170.66667175px;line-height:1.25;font-family:'Fira Sans';-inkscape-font-specification:'Fira Sans Heavy';letter-spacing:0px;word-spacing:0px;fill:#ffffff;fill-opacity:1;stroke:none;stroke-width:1.25"
       id="path4569"
       inkscape:connector-curvature="0" />
    <path
       d="m 640.5576,563.18312 -3.584,26.28267 h -26.96534 v 92.50133 h -35.15733 v -92.50133 h -28.84267 v -26.28267 z"
       style="font-style:normal;font-variant:normal;font-weight:900;font-stretch:normal;font-size:170.66667175px;line-height:1.25;font-family:'Fira Sans';-inkscape-font-specification:'Fira Sans Heavy';letter-spacing:0px;word-spacing:0px;fill:#ffffff;fill-opacity:1;stroke:none"
       id="path4571"
       inkscape:connector-curvature="0" />
  </g>
</svg>
