<svg version="1" xmlns="http://www.w3.org/2000/svg" width="933.333" height="933.333" viewBox="0 0 700.000000 700.000000"><path d="M0 350v350h700V0H0v350zm209.5-174.9c34.6 4.3 65.9 17.9 89.9 39.2l4.9 4.3-20.7 24.5c-11.4 13.4-21.3 24.8-22 25.3-.8.6-3.2-.6-7.3-3.6-10.9-8-26.4-15.3-40.3-18.9-9.4-2.5-29.3-3.5-37.5-2-14.2 2.6-22.5 10.1-23.3 20.9-1.2 17.3 5.4 22.3 48.8 37.1 35.9 12.1 44.2 15.5 59.5 24.6 20.1 11.8 32.4 24.2 40.5 41 5.8 11.9 8.6 22.9 10 38.6 4.6 53.6-25.1 95.1-80.5 112.4-26.5 8.3-59.8 10.4-93.6 6-35.1-4.6-68.9-19.9-95.3-43.2-4.4-3.8-4.7-4.5-3.5-6 1.5-2 39.5-44 44-48.7l2.8-2.9 4.8 4c10.3 8.6 25 17 38.1 21.7 14.4 5.2 20.5 6.1 38.7 6.1 15.2-.1 17.6-.3 22.6-2.3 7.7-3 14.2-9 17.4-15.9 2.4-4.9 2.6-6.6 2.3-13.2-.9-19-9.8-25.6-55-41-41.4-14.1-61.3-24.5-76.9-40-17.7-17.6-26.2-39.6-26.2-67.6 0-20.8 4.1-35.3 14.5-51.3C85.3 195 122 177 169.5 173.6c7.4-.5 30.8.3 40 1.5zM574 350v167h-98V183h98v167z"/></svg>