<?xml version="1.0" encoding="UTF-8" standalone="no"?>
<svg
   xmlns:dc="http://purl.org/dc/elements/1.1/"
   xmlns:cc="http://creativecommons.org/ns#"
   xmlns:rdf="http://www.w3.org/1999/02/22-rdf-syntax-ns#"
   xmlns:svg="http://www.w3.org/2000/svg"
   xmlns="http://www.w3.org/2000/svg"
   xmlns:sodipodi="http://sodipodi.sourceforge.net/DTD/sodipodi-0.dtd"
   xmlns:inkscape="http://www.inkscape.org/namespaces/inkscape"
   version="1.1"
   viewBox="0 0 675 210"
   stroke-miterlimit="10"
   id="svg23"
   sodipodi:docname="silvait.svg"
   width="675"
   height="210"
   style="fill:none;stroke:none;stroke-linecap:square;stroke-miterlimit:10"
   inkscape:version="0.92.2 (5c3e80d, 2017-08-06)">
  <metadata
     id="metadata29">
    <rdf:RDF>
      <cc:Work
         rdf:about="">
        <dc:format>image/svg+xml</dc:format>
        <dc:type
           rdf:resource="http://purl.org/dc/dcmitype/StillImage" />
        <dc:title></dc:title>
      </cc:Work>
    </rdf:RDF>
  </metadata>
  <defs
     id="defs27" />
  <sodipodi:namedview
     pagecolor="#ffffff"
     bordercolor="#666666"
     borderopacity="1"
     objecttolerance="10"
     gridtolerance="10"
     guidetolerance="10"
     inkscape:pageopacity="0"
     inkscape:pageshadow="2"
     inkscape:window-width="1600"
     inkscape:window-height="851"
     id="namedview25"
     showgrid="false"
     showguides="true"
     inkscape:guide-bbox="true"
     inkscape:showpageshadow="false"
     inkscape:lockguides="false"
     inkscape:zoom="1.6133333"
     inkscape:cx="337.5"
     inkscape:cy="105"
     inkscape:window-x="0"
     inkscape:window-y="25"
     inkscape:window-maximized="1"
     inkscape:current-layer="layer1">
    <sodipodi:guide
       position="737.6618,244.14787"
       orientation="1,0"
       id="guide4551"
       inkscape:locked="false" />
    <sodipodi:guide
       position="702.48664,252.46728"
       orientation="1,0"
       id="guide4627"
       inkscape:locked="false" />
  </sodipodi:namedview>
  <clipPath
     id="p.0">
    <path
       d="M 0,0 H 960 V 720 H 0 Z"
       id="path2"
       inkscape:connector-curvature="0"
       style="clip-rule:nonzero" />
  </clipPath>
  <g
     clip-path="url(#p.0)"
     id="g21"
     transform="translate(0,-510)">
    <path
       d="M 0,0 H 960 V 720 H 0 Z"
       id="path5"
       inkscape:connector-curvature="0"
       style="fill:#000000;fill-opacity:0;fill-rule:evenodd" />
    <g
       id="g4543"
       transform="translate(224.31813,683.97056)">
      <path
         id="path7"
         d="M 8.56168,67.632545 H 729.41202 V 291.94751 H 8.56168 Z"
         inkscape:connector-curvature="0"
         style="fill:#000000;fill-opacity:0;fill-rule:evenodd" />
      <path
         style="fill:#0080c0;fill-opacity:1;fill-rule:nonzero"
         id="path9"
         d="m 17.56168,76.632545 h 470.6698 V 281.43254 H 17.56168 Z"
         inkscape:connector-curvature="0" />
      <path
         style="fill:#404040;fill-opacity:1;fill-rule:nonzero"
         id="path11"
         d="M 488.23148,76.632545 H 718.78803 V 281.43254 H 488.23148 Z"
         inkscape:connector-curvature="0" />
      <path
         id="path13"
         d="m 117.36369,111.19129 q 28.5625,0 48.71875,19.51563 l -19.92187,23.42188 q -13.67188,-10.9375 -25.90625,-10.9375 -5.21875,0 -7.23438,1.39062 -2.01562,1.375 -2.01562,3.60938 0,1.6875 1.0625,2.84375 1.0625,1.15625 4.8125,2.70312 3.75,1.53125 13,4.54688 19.67187,6.26562 28.71875,16.17187 9.0625,9.89063 9.0625,26.96875 0,12.54688 -6.65625,22.20313 -6.65625,9.65625 -18.71875,14.95312 -12.0625,5.29688 -28.17188,5.29688 -16.40625,0 -29,-5.20313 Q 72.535565,233.45692 61.410569,222.5663 L 83.26994,198.53505 q 15.09375,13 29.48438,13 6.09375,0 8.6875,-2.0625 2.60937,-2.07813 2.60937,-5.14063 0,-2.48437 -1.0625,-4.03125 -1.04687,-1.5625 -4.59375,-3.32812 -3.54687,-1.78125 -11.125,-4.09375 -21.59375,-6.78125 -30.5625,-16.78125 -8.96875,-10 -8.96875,-25.01563 0,-12.25 6.59375,-21.29687 6.609375,-9.06251 17.890625,-13.82814 11.281255,-4.76562 25.140625,-4.76562 z"
         inkscape:connector-curvature="0"
         style="fill:#ffffff;fill-rule:nonzero" />
      <path
         id="path15"
         d="m 200.6783,149.84755 v 90.625 h -26.96875 v -90.625 z m -13.65625,-47.78126 q 6.98437,0 11.5,4.35938 4.53125,4.34375 4.53125,11 0,6.65625 -4.53125,11.01563 -4.51563,4.34375 -11.5,4.34375 -7,0 -11.4375,-4.34375 -4.4375,-4.35938 -4.4375,-11.01563 0,-6.65625 4.4375,-11 4.4375,-4.35938 11.4375,-4.35938 z m 58.87505,141.3125 q -11.76563,0 -18.34375,-6.73437 -6.5625,-6.75 -6.5625,-19.20313 V 113.84753 l 26.95312,-2.90625 v 105.46876 q 0,5.625 4.60938,5.625 2.39062,0 4.4375,-0.84375 l 5.29687,19.10938 q -7.34375,3.07812 -16.39062,3.07812 z m 104.6224,-93.53125 -28.5,90.625 h -31.92187 l -29.1875,-90.625 h 29.35937 l 16.04688,70.14063 16.71875,-70.14063 z m 81.56226,64.34375 q 0,5.125 1.45312,7.51563 1.45313,2.375 4.6875,3.57812 l -5.625,17.57813 q -8.35937,-0.6875 -13.65625,-3.67188 -5.28125,-2.98437 -8.1875,-9.46875 -8.875,13.65625 -27.3125,13.65625 -13.46875,0 -21.5,-7.84375 -8.01562,-7.85937 -8.01562,-20.48437 0,-14.85938 10.92187,-22.70313 10.92188,-7.84375 31.57813,-7.84375 h 9.20312 v -3.9375 q 0,-8.01562 -3.42187,-11 -3.40625,-2.98437 -11.9375,-2.98437 -4.4375,0 -10.75,1.28125 -6.3125,1.28125 -12.96875,3.5 l -6.14063,-17.75 q 8.53125,-3.25 17.48438,-4.95313 8.96875,-1.70312 16.64062,-1.70312 19.46875,0 28.5,8.01562 9.04688,8.01563 9.04688,24.0625 z m -40.78125,9.89063 q 9.21875,0 14.32812,-8.70313 v -16.03125 h -6.65625 q -9.20312,0 -13.73437,3.25 -4.51563,3.23438 -4.51563,10.0625 0,5.45313 2.8125,8.4375 2.8125,2.98438 7.76563,2.98438 z"
         inkscape:connector-curvature="0"
         style="fill:#ffffff;fill-rule:nonzero" />
      <path
         id="path17"
         d="m 583.04913,114.59754 v 125.87501 h -42.25 V 114.59754 Z m 103.23785,0 -4.54687,33.37501 h -26.51563 v 92.5 h -42.25 v -92.5 h -28.82812 v -33.37501 z"
         inkscape:connector-curvature="0"
         style="fill:#ffffff;fill-rule:nonzero" />
      <path
         id="path19"
         d="m 698.143,218.80067 q 5.10938,0 8.51563,3.42187 3.42187,3.40625 3.42187,8.35938 0,4.9375 -3.42187,8.4375 -3.40625,3.5 -8.51563,3.5 -4.95312,0 -8.375,-3.5 -3.40625,-3.5 -3.40625,-8.4375 0,-4.95313 3.40625,-8.35938 3.42188,-3.42187 8.375,-3.42187 z"
         inkscape:connector-curvature="0"
         style="fill:#3f4043;fill-rule:nonzero" />
    </g>
    <g
       aria-label=".Silva..IT."
       transform="translate(8.6227545,-49.580838)"
       style="font-style:normal;font-variant:normal;font-weight:normal;font-stretch:normal;font-size:40px;line-height:1.25;font-family:'Fira Sans';-inkscape-font-specification:'Fira Sans weight=280';letter-spacing:0px;word-spacing:0px;fill:#000000;fill-opacity:1;stroke:none"
       id="flowRoot4526" />
  </g>
  <g
     inkscape:groupmode="layer"
     id="layer1"
     inkscape:label="Silva"
     transform="translate(0,-510)"
     style="display:inline">
    <rect
       style="font-style:normal;font-variant:normal;font-weight:normal;font-stretch:normal;font-size:40px;line-height:1.25;font-family:'Fira Sans';-inkscape-font-specification:'Fira Sans weight=280';letter-spacing:0px;word-spacing:0px;fill:#0080c0;fill-opacity:1;stroke:none;stroke-width:8.8446703;stroke-linecap:square;stroke-miterlimit:10"
       id="rect4629"
       width="455.02509"
       height="210.99612"
       x="1.0253906e-08"
       y="509.00388" />
    <path
       d="m 89.184262,559.76979 q 27.135998,0 43.861338,16.21333 l -15.53067,18.26133 q -11.94667,-9.55733 -25.429328,-9.55733 -6.31467,0 -9.55734,2.21867 -3.24266,2.21866 -3.24266,6.31466 0,3.072 1.70666,5.12 1.87734,1.87734 5.97334,3.584 4.26666,1.70667 13.653328,4.77867 18.77333,5.97334 26.96533,15.01867 8.36267,9.04533 8.36267,24.74667 0,11.43466 -6.144,20.30933 -5.97333,8.704 -17.23733,13.65333 -11.264,4.94934 -26.623998,4.94934 -15.70134,0 -27.648,-4.94934 Q 46.34693,675.48179 38.15493,667.46046 l 17.237332,-18.944 q 13.48267,11.60533 29.184,11.60533 7.33867,0 11.09334,-2.90133 3.75466,-3.072 3.75466,-7.85067 0,-3.584 -1.70666,-5.97333 -1.536,-2.38934 -5.632,-4.43734 -4.096,-2.048 -11.94667,-4.43733 -20.65067,-6.48533 -28.84267,-15.53067 -8.191998,-9.216 -8.191998,-22.86933 0,-11.09334 5.973338,-19.28534 5.97333,-8.192 16.384,-12.62933 10.58133,-4.43733 23.72266,-4.43733 z"
       style="font-style:normal;font-variant:normal;font-weight:900;font-stretch:normal;font-size:170.66667175px;line-height:1.25;font-family:'Fira Sans';-inkscape-font-specification:'Fira Sans Heavy';letter-spacing:0px;word-spacing:0px;display:inline;fill:#ffffff;fill-opacity:1;stroke:none;stroke-linecap:square;stroke-miterlimit:10"
       id="path4555"
       inkscape:connector-curvature="0" />
    <path
       d="m 176.03494,591.34312 v 90.624 h -26.96533 v -90.624 z m -13.65333,-47.78667 q 6.99733,0 11.43466,4.43734 4.608,4.26666 4.608,10.92266 0,6.656 -4.608,11.09334 -4.43733,4.26666 -11.43466,4.26666 -6.99734,0 -11.43467,-4.26666 -4.43733,-4.43734 -4.43733,-11.09334 0,-6.656 4.43733,-10.92266 4.43733,-4.43734 11.43467,-4.43734 z"
       style="font-style:normal;font-variant:normal;font-weight:bold;font-stretch:normal;font-size:40px;line-height:1.25;font-family:'Fira Sans';-inkscape-font-specification:'Fira Sans Bold';letter-spacing:0px;word-spacing:0px;display:inline;fill:#ffffff;fill-opacity:1;stroke:none;stroke-linecap:square;stroke-miterlimit:10"
       id="path4557"
       inkscape:connector-curvature="0" />
    <path
       d="m 221.13361,684.86846 q -11.776,0 -18.432,-6.656 -6.48534,-6.82667 -6.48534,-19.28534 V 555.33245 l 26.96534,-2.90133 v 105.472 q 0,5.632 4.608,5.632 2.38933,0 4.43733,-0.85333 l 5.29067,19.11467 q -7.33867,3.072 -16.384,3.072 z"
       style="font-style:normal;font-variant:normal;font-weight:bold;font-stretch:normal;font-size:40px;line-height:1.25;font-family:'Fira Sans';-inkscape-font-specification:'Fira Sans Bold';letter-spacing:0px;word-spacing:0px;display:inline;fill:#ffffff;fill-opacity:1;stroke:none;stroke-linecap:square;stroke-miterlimit:10"
       id="path4559"
       inkscape:connector-curvature="0" />
    <path
       d="m 324.06427,591.34312 -28.50133,90.624 h -31.91467 l -29.184,-90.624 h 29.35467 l 16.04267,70.144 16.72533,-70.144 z"
       style="font-style:normal;font-variant:normal;font-weight:bold;font-stretch:normal;font-size:40px;line-height:1.25;font-family:'Fira Sans';-inkscape-font-specification:'Fira Sans Bold';letter-spacing:0px;word-spacing:0px;display:inline;fill:#ffffff;fill-opacity:1;stroke:none;stroke-linecap:square;stroke-miterlimit:10"
       id="path4561"
       inkscape:connector-curvature="0" />
    <path
       d="m 402.09094,655.68446 q 0,5.12 1.36533,7.50933 1.536,2.38933 4.77867,3.584 l -5.632,17.57867 q -8.36267,-0.68267 -13.65333,-3.584 -5.29067,-3.072 -8.192,-9.55734 -8.87467,13.65334 -27.30667,13.65334 -13.48267,0 -21.504,-7.85067 -8.02133,-7.85067 -8.02133,-20.48 0,-14.848 10.92266,-22.69867 10.92267,-7.85066 31.57334,-7.85066 h 9.216 v -3.92534 q 0,-8.02133 -3.41334,-10.92266 -3.41333,-3.07201 -11.94666,-3.07201 -4.43734,0 -10.752,1.36534 -6.31467,1.19467 -12.97067,3.41333 l -6.144,-17.74933 q 8.53333,-3.24267 17.408,-4.94934 9.04533,-1.70666 16.72533,-1.70666 19.456,0 28.50134,8.02133 9.04533,8.02133 9.04533,24.064 z m -40.78933,9.89866 q 9.216,0 14.336,-8.704 v -16.04266 h -6.656 q -9.216,0 -13.824,3.24266 -4.43734,3.24267 -4.43734,10.06934 0,5.46133 2.73067,8.53333 2.90133,2.90133 7.85067,2.90133 z"
       style="font-style:normal;font-variant:normal;font-weight:bold;font-stretch:normal;font-size:40px;line-height:1.25;font-family:'Fira Sans';-inkscape-font-specification:'Fira Sans Bold';letter-spacing:0px;word-spacing:0px;display:inline;fill:#ffffff;fill-opacity:1;stroke:none;stroke-linecap:square;stroke-miterlimit:10"
       id="path4563"
       inkscape:connector-curvature="0" />
  </g>
  <g
     inkscape:groupmode="layer"
     id="layer2"
     inkscape:label="IT"
     transform="translate(0,-510)"
     style="display:inline">
    <rect
       style="font-style:normal;font-variant:normal;font-weight:normal;font-stretch:normal;font-size:40px;line-height:1.25;font-family:'Fira Sans';-inkscape-font-specification:'Fira Sans weight=280';letter-spacing:0px;word-spacing:0px;fill:#404040;fill-opacity:1;stroke:none;stroke-width:6.15711355;stroke-linecap:square;stroke-miterlimit:10"
       id="rect4629-3-6"
       width="220.50903"
       height="210.99612"
       x="455.02505"
       y="509.00388" />
    <path
       d="m 537.65093,563.18312 v 118.784 H 502.4936 v -118.784 z"
       style="font-style:normal;font-variant:normal;font-weight:900;font-stretch:normal;font-size:170.66667175px;line-height:1.25;font-family:'Fira Sans';-inkscape-font-specification:'Fira Sans Heavy';letter-spacing:0px;word-spacing:0px;fill:#ffffff;fill-opacity:1;stroke:none"
       id="path4569"
       inkscape:connector-curvature="0" />
    <path
       d="m 640.5576,563.18312 -3.584,26.28267 h -26.96534 v 92.50133 h -35.15733 v -92.50133 h -28.84267 v -26.28267 z"
       style="font-style:normal;font-variant:normal;font-weight:900;font-stretch:normal;font-size:170.66667175px;line-height:1.25;font-family:'Fira Sans';-inkscape-font-specification:'Fira Sans Heavy';letter-spacing:0px;word-spacing:0px;fill:#ffffff;fill-opacity:1;stroke:none"
       id="path4571"
       inkscape:connector-curvature="0" />
  </g>
</svg>
